{"accessors" : [{"bufferView" : 0, "byteOffset" : 0, "componentType" : 5123, "count" : 9180, "type" : "SCALAR", "max" : [2117], "min" : [0]}, {"bufferView" : 1, "byteOffset" : 0, "componentType" : 5126, "count" : 2118, "type" : "VEC3", "max" : [35.4300003051758, 16.0779991149902, 37], "min" : [-45, -77, 0]}, {"bufferView" : 1, "byteOffset" : 12, "componentType" : 5126, "count" : 2118, "type" : "VEC4", "max" : [1, 0.866666674613953, 0.639215707778931, 1], "min" : [0.23137255012989, 0.333333343267441, 0.10196078568697, 1]}], "asset" : {"generator" : "Aspose.3D 20.2.1", "version" : "2.0"}, "buffers" : [{"uri" : "buffer.bin", "byteLength" : 77672}], "bufferViews" : [{"buffer" : 0, "byteOffset" : 0, "byteLength" : 18360, "target" : 34963}, {"buffer" : 0, "byteOffset" : 18364, "byteLength" : 59304, "byteStride" : 28, "target" : 34962}], "materials" : [{"pbrMetallicRoughness" : {"baseColorFactor" : [1, 1, 1, 1], "metallicFactor" : 0.5, "roughnessFactor" : 0.5}, "emissiveFactor" : [0, 0, 0], "alphaMode" : "OPAQUE", "doubleSided" : false}], "meshes" : [{"primitives" : [{"attributes" : {"POSITION" : 1, "COLOR" : 2}, "indices" : 0, "material" : 0, "mode" : 4}]}], "nodes" : [{"mesh" : 0, "name" : "Mesh_Mesh_head_geo.001_lambert2SG.001"}, {"children" : [0], "matrix" : [1, 0, 0, 0, 0, 2.22044604925031E-16, -1, 0, 0, 1, 2.22044604925031E-16, 0, 0, 0, 0, 1]}], "scene" : 0, "scenes" : [{"nodes" : [1]}]}