{
  "asset": {
    "version": "2.0",
    "generator": "THREE.GLTFExporter"
  },
  "scenes": [
    {
      "nodes": [
        1
      ],
      "name": "Tinkercad GLTF Scene"
    }
  ],
  "scene": 0,
  "nodes": [
    {
      "name": "Mesh_Mesh_head_geo001_lambert2SG001",
      "mesh": 0
    },
    {
      "matrix": [
        1,
        0,
        0,
        0,
        0,
        2.220446049250313e-16,
        -1,
        0,
        0,
        1,
        2.220446049250313e-16,
        0,
        0,
        0,
        0,
        1
      ],
      "children": [
        0
      ]
    }
  ],
  "bufferViews": [
    {
      "buffer": 0,
      "byteOffset": 0,
      "byteLength": 44424,
      "target": 34962,
      "byteStride": 12
    },
    {
      "buffer": 0,
      "byteOffset": 44424,
      "byteLength": 44424,
      "target": 34962,
      "byteStride": 12
    },
    {
      "buffer": 0,
      "byteOffset": 88848,
      "byteLength": 14808,
      "target": 34963
    }
  ],
  "buffers": [
    {
      "byteLength": 103656,
      "uri": "data:application/octet-stream;base64,"
    }
  ],
  "accessors": [
    {
      "bufferView": 0,
      "componentType": 5126,
      "count": 3702,
      "max": [
        86,
        34,
        194
      ],
      "min": [
        -90.64700317382812,
        -42,
        0
      ],
      "type": "VEC3"
    },
    {
      "bufferView": 1,
      "componentType": 5126,
      "count": 3702,
      "max": [
        0.9137254953384399,
        0.615686297416687,
        0.3843137323856354
      ],
      "min": [
        0.09803921729326248,
        0.11372549086809158,
        0.05098039284348488
      ],
      "type": "VEC3"
    },
    {
      "bufferView": 2,
      "componentType": 5125,
      "count": 3702,
      "max": [
        3701
      ],
      "min": [
        0
      ],
      "type": "SCALAR"
    }
  ],
  "materials": [
    {
      "pbrMetallicRoughness": {
        "metallicFactor": 0.5,
        "roughnessFactor": 0.5
      },
      "name": "lambert2SG.001"
    }
  ],
  "meshes": [
    {
      "primitives": [
        {
          "mode": 4,
          "attributes": {
            "POSITION": 0,
            "COLOR_0": 1
          },
          "indices": 2,
          "material": 0
        }
      ]
    }
  ]
}