<svg version="1.1" viewBox="0.0 0.0 512.0 512.0" fill="none" stroke="none" stroke-linecap="square" stroke-miterlimit="10" xmlns:xlink="http://www.w3.org/1999/xlink" xmlns="http://www.w3.org/2000/svg"><clipPath id="p.0"><path d="m0 0l512.0 0l0 512.0l-512.0 0l0 -512.0z" clip-rule="nonzero"/></clipPath><g clip-path="url(#p.0)"><path fill="#000000" fill-opacity="0.0" d="m0 0l512.0 0l0 512.0l-512.0 0z" fill-rule="evenodd"/><path fill="#203864" d="m0 256.0l0 0c0 -141.38489 114.615105 -256.0 256.0 -256.0l0 0c67.89542 0 133.01001 26.971352 181.01935 74.98067c48.009308 48.009308 74.98065 113.12392 74.98065 181.01933l0 0c0 141.38489 -114.61511 256.0 -256.0 256.0l0 0c-141.38489 0 -256.0 -114.61511 -256.0 -256.0z" fill-rule="evenodd"/><path fill="#000000" fill-opacity="0.0" d="m64.88189 64.88189l382.2362 0l0 382.2362l-382.2362 0z" fill-rule="evenodd"/><path fill="#ffffff" d="m254.63394 297.04688l-3.90625 54.953125l-144.39062 0l0 -9.25q3.125 -0.25 9.046875 -0.90625q5.921875 -0.65625 8.265625 -1.6875q3.90625 -1.703125 5.6562576 -4.953125q1.765625 -3.25 1.765625 -8.328125l0 -132.29688q0 -4.421875 -1.5 -7.796875q-1.5 -3.390625 -5.9218826 -5.484375q-3.0 -1.5625 -8.40625 -3.046875q-5.390625 -1.5 -8.90625 -1.765625l0 -9.25l77.98438 0l0 9.25q-3.640625 0.125 -9.4375 1.296875q-5.796875 1.171875 -8.40625 2.09375q-4.421875 1.5625 -6.046875 5.34375q-1.625 3.765625 -1.625 8.0625l0 124.078125q0 8.59375 0.84375 13.359375q0.84375 4.75 3.96875 7.34375q3.0 2.34375 8.921875 3.0625q5.921875 0.71875 16.59375 0.71875q4.828125 0 10.03125 -0.25q5.203125 -0.265625 9.890625 -1.046875q4.5625 -0.78125 8.40625 -2.140625q3.84375 -1.375 5.65625 -3.46875q5.34375 -5.984375 12.4375 -18.15625q7.09375 -12.171875 9.828125 -19.734375l9.25 0zm88.54059 49.359375q-8.46875 3.515625 -16.015625 5.921875q-7.546875 2.40625 -18.484375 2.40625q-16.15625 0 -22.734375 -8.140625q-6.5625 -8.140625 -6.5625 -22.984375l0 -86.96875l-23.1875 0l0 -12.5l23.703125 0l0 -39.96875l23.703125 0l0 39.96875l36.84375 0l0 12.5l-36.59375 0l0 71.734375q0 8.078125 0.578125 13.484375q0.59375 5.40625 2.8125 9.4375q2.078125 3.78125 6.25 5.734375q4.171875 1.953125 11.1875 1.953125q3.265625 0 9.578125 -0.578125q6.3125 -0.59375 8.921875 -1.515625l0 9.515625zm57.413055 -9.375q0 7.28125 -5.28125 12.4375q-5.265625 5.140625 -12.546875 5.140625q-7.296875 0 -12.578125 -5.140625q-5.265625 -5.15625 -5.265625 -12.4375q0 -7.296875 5.265625 -12.5625q5.28125 -5.28125 12.578125 -5.28125q7.28125 0 12.546875 5.28125q5.28125 5.265625 5.28125 12.5625z" fill-rule="nonzero"/></g></svg>